<?xml version="1.0" encoding="UTF-8" standalone="no"?>
<!-- Created with Inkscape (http://www.inkscape.org/) -->

<svg
   xmlns:dc="http://purl.org/dc/elements/1.1/"
   xmlns:cc="http://creativecommons.org/ns#"
   xmlns:rdf="http://www.w3.org/1999/02/22-rdf-syntax-ns#"
   xmlns:svg="http://www.w3.org/2000/svg"
   xmlns="http://www.w3.org/2000/svg"
   xmlns:sodipodi="http://sodipodi.sourceforge.net/DTD/sodipodi-0.dtd"
   xmlns:inkscape="http://www.inkscape.org/namespaces/inkscape"
   width="170.47466mm"
   height="51.890049mm"
   viewBox="0 0 604.04405 183.86238"
   id="svg2"
   version="1.1"
   inkscape:version="0.91 r13725"
   sodipodi:docname="logo-no-bg-white-text-final.svg">
  <defs
     id="defs4" />
  <sodipodi:namedview
     id="base"
     pagecolor="#ffffff"
     bordercolor="#666666"
     borderopacity="1.0"
     inkscape:pageopacity="0.0"
     inkscape:pageshadow="2"
     inkscape:zoom="1.4142136"
     inkscape:cx="308.9704"
     inkscape:cy="149.28189"
     inkscape:document-units="px"
     inkscape:current-layer="layer2"
     showgrid="false"
     inkscape:window-width="1280"
     inkscape:window-height="695"
     inkscape:window-x="0"
     inkscape:window-y="1"
     inkscape:window-maximized="1"
     fit-margin-top="-0.2"
     fit-margin-left="0"
     fit-margin-right="0"
     fit-margin-bottom="0">
    <inkscape:grid
       type="xygrid"
       id="grid3453"
       originx="-150.67202"
       originy="-751.52405" />
  </sodipodi:namedview>
  <metadata
     id="metadata7">
    <rdf:RDF>
      <cc:Work
         rdf:about="">
        <dc:format>image/svg+xml</dc:format>
        <dc:type
           rdf:resource="http://purl.org/dc/dcmitype/StillImage" />
        <dc:title></dc:title>
      </cc:Work>
    </rdf:RDF>
  </metadata>
  <g
     inkscape:label="Layer 1"
     inkscape:groupmode="layer"
     id="layer1"
     transform="translate(-66.616473,-499.66293)" />
  <g
     inkscape:groupmode="layer"
     id="layer2"
     inkscape:label="Layer 2"
     transform="translate(-66.616473,-499.66293)">
    <g
       id="g4146"
       style="stroke-width:0.52486622;stroke-miterlimit:4;stroke-dasharray:none"
       inkscape:export-xdpi="300"
       inkscape:export-ydpi="300">
      <g
         transform="matrix(1.2808718,0,0,1.2808718,-13.217293,-120.71048)"
         id="g4301"
         style="stroke-width:0.40977264;stroke-miterlimit:4;stroke-dasharray:none">
        <path
           style="fill:#50ad62;fill-opacity:1;fill-rule:evenodd;stroke:#ffffff;stroke-width:0.40977264;stroke-linecap:butt;stroke-linejoin:miter;stroke-miterlimit:4;stroke-dasharray:none;stroke-opacity:1"
           d="m 178.10372,569.68948 a 27.5,27.5 0 0 0 -1.49414,-1.39454 27.5,27.5 0 0 0 -2.18946,-1.6621 27.5,27.5 0 0 0 -2.34375,-1.4375 27.5,27.5 0 0 0 -2.47461,-1.19532 27.5,27.5 0 0 0 -2.58203,-0.94336 27.5,27.5 0 0 0 -2.66406,-0.67968 27.5,27.5 0 0 0 -2.7168,-0.41016 27.5,27.5 0 0 0 -2.74609,-0.13867 27.5,27.5 0 0 0 -1.94531,0.0703 27.5,27.5 0 0 0 -2.72852,0.33008 27.5,27.5 0 0 0 -2.68164,0.60156 27.5,27.5 0 0 0 -2.60937,0.86719 27.5,27.5 0 0 0 -2.50977,1.12305 27.5,27.5 0 0 0 -2.38281,1.36718 27.5,27.5 0 0 0 -2.23633,1.59961 27.5,27.5 0 0 0 -2.06641,1.81446 27.5,27.5 0 0 0 -0.0508,0.0547 27.5,27.5 0 0 0 19.21094,7.85938 27.5,27.5 0 0 0 19.21094,-7.82617 z"
           id="path4181"
           inkscape:connector-curvature="0" />
        <path
           style="fill:#ff9b50;fill-opacity:1;fill-rule:evenodd;stroke:#ffffff;stroke-width:0.40977264;stroke-linecap:butt;stroke-linejoin:miter;stroke-miterlimit:4;stroke-dasharray:none;stroke-opacity:1"
           d="m 158.89278,522.51565 a 27.5,27.5 0 0 1 27.5,27.5 27.5,27.5 0 0 1 -8.28906,19.64062 27.5,27.5 0 0 0 -0.0508,-0.0547 27.5,27.5 0 0 0 -2.06641,-1.81446 27.5,27.5 0 0 0 -2.23633,-1.59961 27.5,27.5 0 0 0 -2.38281,-1.36718 27.5,27.5 0 0 0 -2.50977,-1.12305 27.5,27.5 0 0 0 -2.60937,-0.86719 27.5,27.5 0 0 0 -2.68164,-0.60156 27.5,27.5 0 0 0 -2.72852,-0.33008 27.5,27.5 0 0 0 -1.94531,-0.0703 27.5,27.5 0 0 0 -2.74609,0.13867 27.5,27.5 0 0 0 -2.7168,0.41016 27.5,27.5 0 0 0 -2.66406,0.67968 27.5,27.5 0 0 0 -2.58203,0.94336 27.5,27.5 0 0 0 -2.47461,1.19532 27.5,27.5 0 0 0 -2.34375,1.4375 27.5,27.5 0 0 0 -2.18946,1.6621 27.5,27.5 0 0 0 -1.49414,1.39454 27.5,27.5 0 0 1 -8.28904,-19.67382 27.5,27.5 0 0 1 27.5,-27.5 z"
           id="path3343"
           inkscape:connector-curvature="0" />
        <path
           inkscape:connector-curvature="0"
           id="path4243"
           d="m 158.89278,616.81841 a 27.5,27.5 0 0 1 -27.5,-27.5 27.5,27.5 0 0 1 8.28906,-19.64062 27.5,27.5 0 0 0 0.0508,0.0547 27.5,27.5 0 0 0 2.06641,1.81446 27.5,27.5 0 0 0 2.23633,1.59961 27.5,27.5 0 0 0 2.38281,1.36718 27.5,27.5 0 0 0 2.50977,1.12305 27.5,27.5 0 0 0 2.60937,0.86719 27.5,27.5 0 0 0 2.68164,0.60156 27.5,27.5 0 0 0 2.72852,0.33008 27.5,27.5 0 0 0 1.94531,0.0703 27.5,27.5 0 0 0 2.74609,-0.13867 27.5,27.5 0 0 0 2.7168,-0.41016 27.5,27.5 0 0 0 2.66406,-0.67968 27.5,27.5 0 0 0 2.58203,-0.94336 27.5,27.5 0 0 0 2.47461,-1.19532 27.5,27.5 0 0 0 2.34375,-1.4375 27.5,27.5 0 0 0 2.18946,-1.6621 27.5,27.5 0 0 0 1.49414,-1.39454 27.5,27.5 0 0 1 8.28904,19.67382 27.5,27.5 0 0 1 -27.5,27.5 z"
           style="fill:#83d690;fill-opacity:1;fill-rule:evenodd;stroke:#ffffff;stroke-width:0.40977264;stroke-linecap:butt;stroke-linejoin:miter;stroke-miterlimit:4;stroke-dasharray:none;stroke-opacity:1" />
      </g>
    </g>
    <text
       xml:space="preserve"
       style="font-style:normal;font-weight:normal;font-size:40px;line-height:125%;font-family:sans-serif;letter-spacing:0px;word-spacing:0px;fill:#ffffff;fill-opacity:1;stroke:none;stroke-width:1px;stroke-linecap:butt;stroke-linejoin:miter;stroke-opacity:1;"
       x="228.62361"
       y="611.83295"
       id="text3343"
       sodipodi:linespacing="125%"><tspan
         sodipodi:role="line"
         id="tspan3345"
         x="228.62361"
         y="611.83295"
         style="font-style:normal;font-variant:normal;font-weight:normal;font-stretch:normal;font-size:125px;line-height:125%;font-family:Drakalligro;-inkscape-font-specification:'Drakalligro, Normal';text-align:start;writing-mode:lr-tb;text-anchor:start;fill:#ffffff;">ppipolla</tspan></text>
    <flowRoot
       xml:space="preserve"
       id="flowRoot3347"
       style="font-style:normal;font-weight:normal;font-size:125px;line-height:125%;font-family:Drakalligro;letter-spacing:0px;word-spacing:0px;fill:#000000;fill-opacity:1;stroke:none;stroke-width:1px;stroke-linecap:butt;stroke-linejoin:miter;stroke-opacity:1;-inkscape-font-specification:'Drakalligro, Normal';font-stretch:normal;font-variant:normal;text-anchor:start;text-align:start;writing-mode:lr;"
       transform="translate(66.616473,499.66293)"><flowRegion
         id="flowRegion3349"><rect
           id="rect3351"
           width="48.08326"
           height="64.346718"
           x="12.727922"
           y="57.290264"
           style="-inkscape-font-specification:'Drakalligro, Normal';font-family:Drakalligro;font-weight:normal;font-style:normal;font-stretch:normal;font-variant:normal;font-size:125px;text-anchor:start;text-align:start;writing-mode:lr;line-height:125%;" /></flowRegion><flowPara
         id="flowPara3353">H</flowPara></flowRoot>    <text
       xml:space="preserve"
       style="font-style:normal;font-variant:normal;font-weight:normal;font-stretch:normal;font-size:125px;line-height:125%;font-family:Drakalligro;-inkscape-font-specification:'Drakalligro, Normal';text-align:start;letter-spacing:0px;word-spacing:0px;writing-mode:lr-tb;text-anchor:start;fill:#ffffff;fill-opacity:1;stroke:none;stroke-width:1px;stroke-linecap:butt;stroke-linejoin:miter;stroke-opacity:1;"
       x="78.637276"
       y="612.81464"
       id="text3355"
       sodipodi:linespacing="125%"><tspan
         sodipodi:role="line"
         id="tspan3357"
         x="78.637276"
         y="612.81464">H</tspan></text>
  </g>
</svg>
